<?xml version="1.0" encoding="UTF-8"?>
<svg id="Layer_1" data-name="Layer 1" xmlns="http://www.w3.org/2000/svg" xmlns:xlink="http://www.w3.org/1999/xlink" viewBox="0 0 1080 1080">
  <defs>
    <style>
      .cls-1 {
        fill: #fff;
      }

      .cls-2 {
        font-family: ELURERegular, ELURE;
        font-size: 160.46px;
        letter-spacing: 0em;
      }

      .cls-2, .cls-3 {
        fill: #337d81;
      }

      .cls-4 {
        fill: #68b1b5;
      }

      .cls-5 {
        fill: url(#radial-gradient);
        stroke: #fbd10e;
        stroke-width: .09px;
      }

      .cls-6 {
        clip-path: url(#clippath);
      }

      .cls-7 {
        fill: #3f545a;
      }

      .cls-8 {
        fill: none;
      }
    </style>
    <clipPath id="clippath">
      <rect class="cls-8" y="0" width="1080" height="1080"/>
    </clipPath>
    <radialGradient id="radial-gradient" cx="697.5" cy="2188.49" fx="697.5" fy="2188.49" r="117.34" gradientTransform="translate(-883.17 -1414.07) rotate(-15.01)" gradientUnits="userSpaceOnUse">
      <stop offset=".6" stop-color="#3f545a"/>
      <stop offset=".74" stop-color="#337d81"/>
      <stop offset="1" stop-color="#248993"/>
    </radialGradient>
  </defs>
  <g class="cls-6">
    <g>
      <text class="cls-2" transform="translate(506.56 565.73)"><tspan x="0" y="0">Shopu</tspan></text>
      <path class="cls-3" d="m128.85,538.12c17.95,0,35.91-.02,53.86.02,2.1,0,4.23.18,6.29.58,2.37.46,3.46,2.16,3.63,4.57.17,2.46-.82,4.2-3.1,4.93-1.67.53-3.48.86-5.22.86-36.24.05-72.49.04-108.73.01-1.77,0-3.54-.38-5.31-.49-3.08-.19-4.67-2-5.03-4.84-.28-2.19,2.44-5.05,5.08-5.43,1.64-.24,3.34-.22,5.01-.22,17.84-.01,35.69,0,53.53,0v.02Z"/>
      <path class="cls-3" d="m134.54,501.32c12.93,0,25.87-.02,38.8.03,1.31,0,2.68.17,3.91.59,2.38.82,3.94,2.77,3.21,5.13-.53,1.72-2.18,3.44-3.79,4.38-1.41.83-3.46.76-5.22.76-25.09.06-50.18.1-75.27.02-2.03,0-4.26-.57-6.03-1.54-3.68-2.01-3.43-6.7.4-8.44,1.55-.7,3.45-.89,5.19-.9,12.93-.07,25.87-.04,38.8-.04h0Z"/>
      <path class="cls-3" d="m158.59,575.52c12.83,0,25.65-.01,38.48.02,1.43,0,3.34-.22,4.2.57,1.49,1.37,2.91,3.33,3.3,5.25.5,2.44-1.53,3.75-3.84,4.16-1.31.23-2.64.42-3.96.42-24.55.01-49.09,0-73.64-.02-2,0-4.02-.12-6.01-.32-3.41-.34-5.14-2.08-5.14-5,0-2.85,2.14-5.01,5.45-5.14,5.13-.21,10.26-.28,15.39-.31,8.59-.05,17.18-.01,25.76-.01,0,.13,0,.26,0,.38Z"/>
      <g>
        <path class="cls-3" d="m425.47,432.73c-.13-.22-.27-.44-.43-.65-56.16,15.08-112.3,30.11-168.43,45.19-.1.2-.15.4-.11.61,11.68,43.55,23.35,87.08,35,130.63.98,2.23,2.83,3.99,4.96,5.12.08,0,.25-.02.33-.01,1.13.69,2.5.8,3.8.91.86-.28,1.82-.13,2.67-.46,1.29-.35,2.58-.69,3.87-1.04v.02s145.58-39.03,145.58-39.03l-.04-.16c.22-.06.44-.12.65-.18,1.51-.35,2.93-1.11,4.03-2.2.71-.49,1-1.31,1.58-1.87.56-.56.54-1.39.98-2.04.32-1.26.66-2.56.36-3.86.07-.02.25-.09.34-.14-11.77-43.6-23.39-87.24-35.14-130.85Z"/>
        <path class="cls-4" d="m271.1,444.12c1.84-1.18,4.07-1.32,6.09-2.01,38.72-10.36,77.43-20.76,116.14-31.14,2.27-.71,4.64.05,6.95.14,1.89.23,3.82.3,5.72.58.39.05.74.29,1.07.48.82,3.14,1.68,6.28,2.53,9.44.25.82.33,1.72.83,2.44.52-.06.88.25,1.29.47,1.76.29,3.39,1.1,5.07,1.66,2.54.94,5.17,1.66,7.68,2.67.26.59.36,1.25.32,1.87-.04.72.3,1.39.4,2.08-56.16,15.08-112.3,30.11-168.43,45.19-.33-.75-.32-1.59-.85-2.24-.21-.6-.64-1.35-.16-1.94,1.93-2.3,4.04-4.46,5.89-6.84,1.2-1.31,2.34-2.64,3.49-3.96.16-.55-.1-1.12-.24-1.64-.92-3.44-1.84-6.87-2.74-10.32.53-1.26,1.89-1.75,2.87-2.57,2.02-1.46,4.08-2.9,6.08-4.35m.25.37c-2.72,1.98-5.48,3.91-8.21,5.88-.38.18-.5.59-.63.96.07.18.19.51.24.7.74,2.85,1.53,5.69,2.26,8.54.21.7.31,1.44.74,2.01-.23.39-.47.79-.79,1.13-2.84,3.15-5.51,6.46-8.36,9.58-.5.51-1.03,1.17-.63,1.9,0,.46.3.76.72.52,7.43-2.04,14.88-3.94,22.29-6.05,11.07-2.97,22.13-5.91,33.19-8.9l.15-.12c.53-.02,1.01-.2,1.54-.34,20.06-5.38,40.12-10.73,60.19-16.14,6.31-1.67,12.64-3.39,18.97-5.09,10.43-2.8,20.91-5.51,31.33-8.35.29-.15.33-.39.11-.74-.13-.37-.12-.93-.59-1.06-1.87-.34-3.62-1.17-5.46-1.69-.7-.32-1.5-.38-2.1-.91-1.88-.49-3.71-1.22-5.59-1.8-.36-.11-.68-.35-1.01-.54,0-.54-.09-1.09-.23-1.62-.83-3-1.61-6.02-2.45-9.03-.06-.49-.23-1.03-.74-1.23-3.12-.26-6.23-.59-9.33-.88-.99-.19-2.03-.17-3.01-.06-40.4,10.83-80.77,21.66-121.17,32.49-.51.16-.94.56-1.43.82Z"/>
        <path class="cls-7" d="m262.75,452.02c2.32.32,4.68.22,7.02.51,1.26.15,1.94,1.28,2.71,2.15-.36.63-.85,1.19-1.34,1.73-1.79,2.05-3.63,4.07-5.38,6.17-.43-.57-.53-1.31-.74-2.01-.74-2.85-1.52-5.69-2.26-8.54Z"/>
        <path class="cls-7" d="m401.21,417.29c1.89-1.4,3.94-2.56,5.83-3.95.83,3,1.61,6.02,2.45,9.03.14.52.24,1.08.23,1.62-2.19-.78-4.39-1.49-6.58-2.25-1.08-.42-2.21-.65-3.23-1.24.23-1.13.29-2.44,1.3-3.2Z"/>
        <path class="cls-7" d="m299.79,445.52c2.44-1.32,5.98.23,6.5,3.01.74,2.67-1.5,5.61-4.24,5.69-1.14-.08-2.28-.35-3.17-1.11-1.17-1.03-1.81-2.67-1.51-4.22.12-1.45,1.16-2.7,2.43-3.37Z"/>
        <path class="cls-7" d="m367.83,428.88c.77-1.5,2.31-2.65,4.04-2.66,1.3.03,2.7.5,3.54,1.54,1.59,1.76,1.52,4.73-.23,6.34-1.54,1.48-3.94,1.61-5.7.54-1.82-1.21-2.62-3.8-1.65-5.76Z"/>
        <path class="cls-4" d="m271.15,456.4c.49-.54.98-1.1,1.34-1.73l.21.12c.5,1.19.72,2.48,1.09,3.7.92,3.72,2.06,7.4,2.89,11.14-6.9,1.85-13.81,3.65-20.7,5.55-.4-.73.14-1.38.63-1.9,2.85-3.13,5.52-6.43,8.36-9.58.32-.34.56-.74.79-1.13,1.75-2.1,3.6-4.12,5.38-6.17Z"/>
        <path class="cls-4" d="m399.89,421.38c-.08-.31-.08-.59.01-.89,1.02.59,2.15.82,3.23,1.24,2.19.76,4.38,1.47,6.58,2.25.33.19.65.44,1.01.54,1.89.59,3.71,1.32,5.59,1.8.6.53,1.4.59,2.1.91,1.84.52,3.59,1.35,5.46,1.69.47.13.46.69.59,1.06-6.89,1.87-13.78,3.67-20.67,5.57-.37-.92-.56-1.88-.83-2.8-1.02-3.79-2.08-7.57-3.07-11.37Z"/>
        <path class="cls-5" d="m424.46,429.98c-6.89,1.87-13.78,3.67-20.67,5.57-.37-.92-.56-1.88-.83-2.8-1.02-3.79-2.08-7.57-3.08-11.37-.08-.31-.08-.59.01-.89.23-1.13.29-2.44,1.3-3.2,1.89-1.4,3.94-2.56,5.83-3.95-.06-.49-.23-1.03-.74-1.23-3.12-.26-6.23-.59-9.33-.88-.99-.19-2.03-.17-3.01-.06-40.4,10.83-80.77,21.66-121.17,32.49-.52.16-.94.56-1.43.82-2.72,1.98-5.48,3.91-8.21,5.88-.38.18-.5.59-.63.96.07.18.19.51.24.7,2.32.32,4.68.22,7.02.51,1.26.15,1.95,1.28,2.71,2.15l.21.12c.5,1.19.72,2.48,1.09,3.7.92,3.72,2.06,7.4,2.89,11.14-6.9,1.85-13.81,3.65-20.7,5.55,0,.46.3.76.72.52,7.43-2.04,14.88-3.94,22.29-6.05,11.07-2.97,22.12-5.91,33.19-8.9l.15-.12c.53-.02,1.01-.2,1.54-.34,20.06-5.38,40.12-10.73,60.19-16.14,6.31-1.67,12.64-3.39,18.97-5.09,10.43-2.8,20.91-5.51,31.33-8.35.29-.15.33-.39.11-.74Zm-127.1,18.91c.12-1.45,1.16-2.7,2.43-3.37,2.44-1.32,5.98.23,6.5,3.01.74,2.67-1.5,5.61-4.24,5.69-1.14-.08-2.28-.35-3.17-1.11-1.17-1.03-1.81-2.67-1.51-4.22Zm70.46-20.01c.77-1.5,2.31-2.65,4.04-2.66,1.3.03,2.7.5,3.54,1.54,1.59,1.76,1.52,4.73-.23,6.34-1.54,1.48-3.94,1.61-5.7.54-1.82-1.21-2.62-3.8-1.65-5.76Z"/>
      </g>
      <path class="cls-3" d="m299.8,641.7c-11.3.62-19.68-3.06-25.14-11.16-5.6-8.31-10.43-17.23-14.82-26.27-22.8-47-45.3-94.15-68.02-141.19-6.25-12.92-7.24-13.13-21.24-8.98-7.61,2.26-15.24,4.46-22.9,6.56-5.17,1.42-8.75-.46-10.13-5.07-1.25-4.16.77-7.9,5.8-9.36,12.17-3.52,24.4-6.83,36.66-10.04,7.59-1.98,13.92.71,17.78,7.21,5.06,8.52,9.46,17.45,13.78,26.37,22.71,46.89,45.24,93.88,67.99,140.75,6.75,13.9,14.69,17.79,29.45,13.78,26.37-7.17,52.57-14.96,78.84-22.47,25.4-7.25,50.81-14.48,76.22-21.71,5.75-1.64,9.89.06,11.24,4.6,1.35,4.56-1.19,8.18-7.05,9.85-37.88,10.78-75.77,21.57-113.67,32.28-17.18,4.85-34.41,9.54-51.63,14.27-1.46.4-3,.54-3.17.57Z"/>
      <path class="cls-7" d="m360.82,652.75c.54,8.41-5.9,15.82-14.39,16.54-8.49.72-16.36-6.06-16.89-14.56-.58-9.16,5.85-16.48,14.89-16.94,8.85-.46,15.8,5.89,16.39,14.97Z"/>
      <path class="cls-7" d="m418.33,628.6c-.34-8.64,6.43-15.83,15.24-16.18,8.58-.35,15.91,6.56,16.18,15.27.27,8.55-6.32,15.74-14.79,16.13-9.12.43-16.28-6.12-16.64-15.21Z"/>
      <g>
        <path class="cls-7" d="m364.99,555.16c-24.1,6.42-48.94-7.97-55.36-32.07l-11.59-43.52,5.57-1.48,11.59,43.52c5.6,21.03,27.27,33.59,48.3,27.98,21.03-5.6,33.59-27.27,27.98-48.3l-11.59-43.52,5.57-1.48,11.59,43.52c6.42,24.1-7.97,48.94-32.07,55.36Z"/>
        <path class="cls-1" d="m313.5,483.46c1.57,5.9-1.94,11.96-7.84,13.53-5.9,1.57-11.96-1.94-13.53-7.84-1.57-5.9,1.94-11.96,7.84-13.53,5.9-1.57,11.96,1.94,13.53,7.84Z"/>
        <path class="cls-1" d="m395.36,461.66c1.57,5.9-1.94,11.96-7.84,13.53-5.9,1.57-11.96-1.94-13.53-7.84-1.57-5.9,1.94-11.96,7.84-13.53,5.9-1.57,11.96,1.94,13.53,7.84Z"/>
        <path class="cls-1" d="m364.99,553.09c-24.1,6.42-48.94-7.97-55.36-32.07l-11.59-43.52,5.57-1.48,11.59,43.52c5.6,21.03,27.27,33.59,48.3,27.98,21.03-5.6,33.59-27.27,27.98-48.3l-11.59-43.52,5.57-1.48,11.59,43.52c6.42,24.1-7.97,48.94-32.07,55.36Z"/>
      </g>
    </g>
  </g>
</svg>